<svg xmlns="http://www.w3.org/2000/svg" viewBox="0 0 301.33 249.27"><defs><style>.cls-1{fill:#fff;}</style></defs><title>Asset 1</title><g id="Layer_2" data-name="Layer 2"><g id="Layer_1-2" data-name="Layer 1"><g id="_Group_" data-name="&lt;Group&gt;"><g id="_Group_2" data-name="&lt;Group&gt;"><g id="_Group_3" data-name="&lt;Group&gt;"><polygon id="_Path_" data-name="&lt;Path&gt;" class="cls-1" points="233.98 85.65 212.64 106.98 192.4 86.75 237.59 41.54 301.33 105.28 212.32 194.29 107.04 89.01 196.06 0 218.5 22.44 150.58 90.37 209.03 148.83 253.2 104.66 233.98 85.65"/></g></g><g id="_Group_4" data-name="&lt;Group&gt;"><g id="_Group_5" data-name="&lt;Group&gt;"><polygon id="_Path_2" data-name="&lt;Path&gt;" class="cls-1" points="87.85 153.5 47 194.35 2 194.46 88.04 108.43 173.74 194.13 128.87 194.49 87.85 153.5"/></g><g id="_Group_6" data-name="&lt;Group&gt;"><polygon id="_Path_3" data-name="&lt;Path&gt;" class="cls-1" points="94.88 194.49 80.85 194.49 87.87 187.48 94.88 194.49"/></g></g></g><g id="_Group_7" data-name="&lt;Group&gt;"><path id="_Compound_Path_" data-name="&lt;Compound Path&gt;" class="cls-1" d="M5.64,241.55,3.17,249H0l8.07-23.74h3.7L19.87,249H16.59l-2.53-7.47Zm7.78-2.39-2.32-6.84c-.53-1.55-.88-2.95-1.24-4.33H9.79c-.35,1.41-.74,2.85-1.19,4.3l-2.33,6.87Z"/><path id="_Compound_Path_2" data-name="&lt;Compound Path&gt;" class="cls-1" d="M41,225.28H44v21.17H54.17V249H41Z"/><path id="_Compound_Path_3" data-name="&lt;Compound Path&gt;" class="cls-1" d="M87.49,237.89H78.26v8.56H88.55V249H75.2V225.28H88v2.57H78.26v7.5h9.23Z"/><path id="_Compound_Path_4" data-name="&lt;Compound Path&gt;" class="cls-1" d="M123.13,249l-3-5.25c-1.23-2-2-3.31-2.74-4.68h-.07c-.67,1.37-1.34,2.64-2.58,4.72L111.86,249h-3.52l7.25-12-7-11.73h3.56l3.13,5.56c.88,1.55,1.55,2.75,2.19,4h.1c.67-1.41,1.27-2.5,2.15-4l3.24-5.56h3.52l-7.22,11.55,7.4,12.19Z"/><path id="_Compound_Path_5" data-name="&lt;Compound Path&gt;" class="cls-1" d="M191,248a21.85,21.85,0,0,1-7.29,1.31c-3.59,0-6.55-.92-8.88-3.14a12.22,12.22,0,0,1-3.31-8.84c0-7.08,4.9-12.26,12.86-12.26a14.74,14.74,0,0,1,5.92,1.09l-.74,2.5a12.36,12.36,0,0,0-5.25-1c-5.78,0-9.55,3.6-9.55,9.55s3.63,9.58,9.16,9.58a10.09,10.09,0,0,0,4.09-.63V239h-4.83v-2.47H191Z"/><path id="_Compound_Path_6" data-name="&lt;Compound Path&gt;" class="cls-1" d="M217.13,241.55,214.67,249H211.5l8.06-23.74h3.7L231.37,249h-3.28l-2.54-7.47Zm7.79-2.39-2.33-6.84c-.52-1.55-.88-2.95-1.23-4.33h-.07c-.35,1.41-.74,2.85-1.2,4.3l-2.32,6.87Z"/><path id="_Compound_Path_7" data-name="&lt;Compound Path&gt;" class="cls-1" d="M252.46,225.28h3.06v21.17h10.15V249H252.46Z"/><path id="_Compound_Path_8" data-name="&lt;Compound Path&gt;" class="cls-1" d="M299,237.89h-9.23v8.56H300V249H286.69V225.28h12.83v2.57h-9.76v7.5H299Z"/></g></g></g></svg>