<?xml version="1.0" encoding="UTF-8" standalone="no"?>
<!-- Created with Inkscape (http://www.inkscape.org/) -->

<svg
   xmlns:dc="http://purl.org/dc/elements/1.1/"
   xmlns:cc="http://creativecommons.org/ns#"
   xmlns:rdf="http://www.w3.org/1999/02/22-rdf-syntax-ns#"
   xmlns:svg="http://www.w3.org/2000/svg"
   xmlns="http://www.w3.org/2000/svg"
   xmlns:sodipodi="http://sodipodi.sourceforge.net/DTD/sodipodi-0.dtd"
   xmlns:inkscape="http://www.inkscape.org/namespaces/inkscape"
   width="84.357002mm"
   height="84.357002mm"
   version="1.1"
   viewBox="0 0 84.357 84.357001"
   id="svg58"
   sodipodi:docname="logo.svg"
   inkscape:version="0.92.4 (5da689c313, 2019-01-14)">
  <defs
     id="defs62" />
  <sodipodi:namedview
     pagecolor="#ffffff"
     bordercolor="#666666"
     borderopacity="1"
     objecttolerance="10"
     gridtolerance="10"
     guidetolerance="10"
     inkscape:pageopacity="0"
     inkscape:pageshadow="2"
     inkscape:window-width="1920"
     inkscape:window-height="1027"
     id="namedview60"
     showgrid="false"
     inkscape:zoom="0.94094145"
     inkscape:cx="159.41481"
     inkscape:cy="103.57984"
     inkscape:window-x="-8"
     inkscape:window-y="-8"
     inkscape:window-maximized="1"
     inkscape:current-layer="svg58" />
  <metadata
     id="metadata42">
    <rdf:RDF>
      <cc:Work
         rdf:about="">
        <dc:format>image/svg+xml</dc:format>
        <dc:type
           rdf:resource="http://purl.org/dc/dcmitype/StillImage" />
        <dc:title></dc:title>
      </cc:Work>
    </rdf:RDF>
  </metadata>
  <g
     transform="translate(-47.024,-34.429003)"
     id="g56"
     style="fill:#ffffff">
    <g
       transform="matrix(0.10413,0,0,-0.10413,-1566,1103.4)"
       id="g46"
       style="fill:#ffffff">
      <path
         d="m 16118,9749.7 -57.8,-57.73 -54.7,54.75 122.3,122.36 172.5,-172.5 -240.9,-240.91 -284.9,284.95 240.9,240.87 60.7,-60.71 -183.8,-183.86 158.2,-158.2 119.5,119.55 -52,51.43"
         id="path44"
         style="fill:#ffffff"
         inkscape:connector-curvature="0" />
    </g>
    <g
       transform="matrix(0.10193,0,0,-0.10193,-1566,1103.4)"
       id="g50"
       style="fill:#ffffff">
      <path
         d="m 16062,9773.2 -112.9,-112.94 -124.4,-0.35 237.9,237.92 236.9,-236.98 -124,-1 -113.5,113.35"
         id="path48"
         style="fill:#ffffff"
         inkscape:connector-curvature="0" />
    </g>
    <g
       transform="matrix(0.10056,0,0,-0.10056,-1566,1103.4)"
       id="g54"
       style="fill:#ffffff">
      <path
         d="m 16300,9790.8 h -39.3 l 19.7,19.64 19.6,-19.64"
         id="path52"
         style="fill:#ffffff"
         inkscape:connector-curvature="0" />
    </g>
  </g>
</svg>
